<svg height="200px" width="200px" version="1.1" id="Layer_1" xmlns="http://www.w3.org/2000/svg" xmlns:xlink="http://www.w3.org/1999/xlink" viewBox="0 0 512 512" xml:space="preserve" fill="#000000"><g id="SVGRepo_bgCarrier" stroke-width="0"></g><g id="SVGRepo_tracerCarrier" stroke-linecap="round" stroke-linejoin="round"></g><g id="SVGRepo_iconCarrier"> <path style="fill:#FFDA79;" d="M375.174,472.812H136.825c-24.227,0-43.867-19.64-43.867-43.867v-64.402h326.084v64.402 C419.042,453.17,399.401,472.812,375.174,472.812z"></path> <path style="fill:#FFC72D;" d="M255.999,364.541v108.27h119.174c24.227,0,43.867-19.64,43.867-43.867v-64.403L255.999,364.541 L255.999,364.541z"></path> <path style="fill:#FFDA79;" d="M255.999,39.188c-90.046,0-163.042,72.997-163.042,163.042v13.693h326.084V202.23 C419.042,112.185,346.046,39.188,255.999,39.188z"></path> <path style="fill:#FFC72D;" d="M419.042,202.23c0-90.045-72.997-163.042-163.042-163.042v176.735h163.042V202.23z"></path> <path style="fill:#DBBE93;" d="M441.028,364.541H70.972c-7.038,0-12.742-5.705-12.742-12.742v-55.671 c0-7.038,5.705-12.742,12.742-12.742h370.056c7.038,0,12.743,5.705,12.743,12.742v55.671 C453.771,358.836,448.066,364.541,441.028,364.541z"></path> <path style="fill:#23B898;" d="M492.886,383.655H19.114C8.558,383.655,0,375.097,0,364.541s8.558-19.114,19.114-19.114h473.772 c10.556,0,19.114,8.558,19.114,19.114S503.442,383.655,492.886,383.655z"></path> <g> <circle style="fill:#DBAC67;" cx="255.997" cy="131.655" r="10.941"></circle> <circle style="fill:#DBAC67;" cx="195.89" cy="131.655" r="10.941"></circle> </g> <polygon style="fill:#FFEDBE;" points="98.807,269.692 98.807,283.385 255.999,364.541 413.192,283.385 413.192,269.692 "></polygon> <path style="fill:#FF5E5B;" d="M413.192,283.385H98.807c-22.41,0-40.577-18.167-40.577-40.577l0,0 c0-22.41,18.167-40.577,40.577-40.577h314.385c22.41,0,40.577,18.167,40.577,40.577l0,0 C453.771,265.219,435.604,283.385,413.192,283.385z"></path> <path style="fill:#DBAC67;" d="M441.028,283.385H255.999v81.156h185.029c7.038,0,12.742-5.705,12.742-12.742v-55.671 C453.771,289.09,448.066,283.385,441.028,283.385z"></path> <path style="fill:#1DA49C;" d="M492.886,345.427H255.999v38.227h236.886c10.556,0,19.114-8.558,19.114-19.114 C512,353.985,503.442,345.427,492.886,345.427z"></path> <polygon style="fill:#FFE49C;" points="255.999,269.692 255.999,364.541 413.192,283.385 413.192,269.692 "></polygon> <path style="fill:#ED3E3C;" d="M413.192,202.23H255.999v81.156h157.193c22.41,0,40.577-18.167,40.577-40.577l0,0 C453.771,220.397,435.604,202.23,413.192,202.23z"></path> <g> <path style="fill:#CC9C56;" d="M255.999,120.708v21.883c6.042,0,10.941-4.898,10.941-10.941 C266.941,125.608,262.042,120.708,255.999,120.708z"></path> <circle style="fill:#CC9C56;" cx="316.103" cy="131.655" r="10.941"></circle> </g> </g></svg>